<?xml version="1.0" encoding="utf-8" ?><svg xmlns="http://www.w3.org/2000/svg" xmlns:xlink="http://www.w3.org/1999/xlink" width="1254" height="1254" viewBox="0 0 1254 1254"><path fill="#FEFEFD" d="M0 0L1254 0L1254 1254L0 1254L0 0Z"/><path fill="#FE481A" d="M995.418 750.942C995.809 750.906 996.573 750.825 997.124 750.822C1018.78 750.673 1040.39 751.296 1062.06 751.192L1104.86 750.821C1113.59 750.737 1128.61 750.252 1136.66 751.831C1144.18 753.35 1151.12 756.985 1156.65 762.31C1177.99 782.872 1165.28 810.6 1157.57 833.987L1142.99 878.301L1131.73 913.082C1126.7 928.581 1123.87 941.16 1112.08 953.062C1103.81 961.52 1093.39 967.557 1081.95 970.52C1068.3 974.113 1045.25 972.858 1030.35 972.829L969.738 972.785C953.912 972.828 937.916 973.133 922.123 972.513C911.064 972.079 901.019 965.44 895.911 955.681C885.285 935.384 896.455 909.505 902.853 889.18L921.568 830.259C936.224 822.399 950.674 814.16 964.904 805.551C976.873 798.425 987.633 792.493 998.469 783.673C974.446 792.871 950.918 803.4 927.138 812.498C931.002 799.148 934.3 787.038 943.671 776.286C958.136 759.689 974.119 752.813 995.418 750.942Z"/><path fill="#FEFEFD" d="M1000.84 805.961C1011.49 804.92 1094.04 804.82 1099.61 807.065C1101.44 807.799 1102.65 809.776 1103.24 811.59C1103.83 813.412 1103.64 815.274 1103.26 817.117C1100.69 829.758 1094.66 845.592 1090.75 858.193C1087.2 869.604 1079.24 899.606 1074.22 908.416C1070.82 914.399 1065.22 917.24 1058.83 918.91C1052.79 919.405 1046.11 919.211 1040.02 919.17C1015.93 919.007 991.826 919.283 967.739 919.071C965.652 919.053 960.046 918.403 958.515 917.429C955.751 915.669 955.065 910.734 956.05 907.838C957.632 901.715 959.488 895.932 961.332 890.007C964.854 878.743 968.444 867.5 972.103 856.28C976.133 843.829 980.153 829.833 985.082 817.79C987.864 810.991 994.274 808.145 1000.84 805.961Z"/><path fill="#FE481A" d="M714.997 285.015C723.082 284.774 730.212 284.788 738.066 286.976C749.454 290.165 759.092 297.781 764.827 308.124C770.912 319.251 771.538 333.75 767.511 345.542C761.288 363.763 754.785 381.962 748.569 400.196L734.586 441.144C730.64 452.628 726.579 466.407 720.157 476.651C710.397 492.218 690.952 504.073 672.78 506.325C664.097 507.4 654.174 507.055 645.388 507.052L603.492 507.007L548.598 506.981C537.639 506.974 516.985 508.023 507.213 504.834C498.579 502.095 491.419 495.982 487.36 487.885C480.036 473.565 482.093 461.005 486.831 446.465C509.637 440.397 533.08 432.457 555.698 426.735C553.598 432.593 548.004 445.222 550.018 450.671C555.77 454.319 581.971 453.12 590.319 453.109L647.627 453.198C671.207 453.619 672.858 439.057 679.042 420.574L690.444 386.642C693.979 376.124 697.471 365.617 701.258 355.186C702.757 351.057 704.27 346.679 702.877 342.344C700.549 340.845 695.762 340.081 692.963 340.079C661.538 340.059 629.994 339.665 598.587 340.291C582.059 340.621 577.225 364.767 572.941 377.396L559.599 416.607C539.414 422.757 511.765 430.465 491.144 435.425L515.419 362.26C518.555 352.925 524.763 333.006 528.728 324.947C531.98 318.309 536.29 312.245 541.49 306.992C550.99 297.284 563.034 290.449 576.241 287.272C589.305 284.095 616.105 285.219 630.615 285.228C658.743 285.334 686.871 285.263 714.997 285.015Z"/><path fill="#FEFEFD" d="M589.58 292.927C595.528 292.486 604.085 292.736 610.173 292.736L647.801 292.719L699.932 292.685C722.009 292.675 745.282 288.965 757.868 311.386C768.43 330.199 758.141 349.499 751.714 367.848L736.761 411.098L724.782 446.228C717.806 466.74 713.704 480.453 693.231 491.678C685.969 495.605 678.019 498.096 669.814 499.013C661.996 499.919 651.972 499.616 643.868 499.613L603.434 499.582L550.774 499.527C540.825 499.544 530.589 499.942 520.659 499.473C493.347 498.184 485.419 476.159 492.748 452.988C507.894 447.789 528.41 442.513 544.044 437.986C540.096 448.862 540.913 457.227 553.36 460.428C572.269 461.132 591.396 460.577 610.336 460.604C624.385 460.625 638.958 461.459 652.925 460.446C656.722 460.171 660.718 459.515 664.258 458.096C670.991 455.397 676.755 448.936 679.526 442.331C686.302 426.185 692.106 405.556 697.804 388.716C701.369 378.18 709.674 357.529 711.234 347.308C711.579 345.048 711.115 342.548 710.188 340.475C708.717 337.185 705.487 334.467 702.119 333.265C698.11 331.834 606.317 331.658 597.091 332.633C594.028 332.956 591.329 333.848 588.566 335.199C583.503 337.675 579.668 341.497 576.699 346.251C571.888 353.957 569.465 363.904 566.564 372.493L554.002 410.062C536.948 415.062 519.851 419.917 502.714 424.625C511.854 396.16 521.777 367.875 531.067 339.453C532.126 336.211 533.292 332.9 534.678 329.783C536.831 324.978 539.61 320.479 542.943 316.402C555.085 301.451 570.923 294.934 589.58 292.927Z"/><path fill="#FE481A" d="M993.654 284.976C1006.72 283.731 1031.89 285.274 1046.09 285.314C1061.78 285.316 1077.48 285.19 1093.17 284.938C1103.58 284.799 1126.47 283.923 1135.29 286.259C1146.93 289.454 1156.8 297.175 1162.7 307.698C1169.84 320.475 1169.91 335.867 1165.46 349.596C1153.68 385.909 1141.39 422.006 1129.31 458.232C1123.06 476.976 1113.75 488.89 1096.25 498.627C1079.47 507.959 1062.67 507.007 1044.15 506.963L1005.49 506.882L952.285 506.889C944.029 506.886 932.677 507.234 924.83 506.783C921.625 506.61 918.451 506.061 915.374 505.147C897.484 499.663 889.426 481.373 890.478 463.845C890.948 456.018 893.3 448.896 895.635 441.487C915.491 436.627 937.212 430.713 956.952 425.319L965.448 423.183C963.88 428.97 957.119 443.577 958.836 448.871C959.442 450.741 961.115 452.089 962.908 452.784C966.67 454.243 1047.73 453.739 1055.59 453.255C1058.59 453.07 1061.22 452.642 1063.99 451.441C1070.5 448.621 1073.94 444.093 1076.56 437.721C1082.32 423.708 1086.18 408.181 1090.74 393.675C1095.01 380.121 1100.57 366.059 1103.37 352.159C1103.86 349.723 1104.2 347.11 1103.07 344.785C1102.19 342.97 1100.73 341.618 1098.77 341.074C1092.1 339.221 1016.3 339.242 1005.33 340.263C1002.73 340.505 1000.43 341.219 998.143 342.474C994.289 344.59 991.746 347.426 989.636 351.264C984.397 360.793 974.432 394.909 971.007 406.76C947.796 412.261 924.647 418.781 901.361 424.356C909.741 396.276 919.464 368.432 928.193 340.45C929.785 335.349 931.554 329.899 933.742 325.04C936.198 319.541 939.393 314.402 943.239 309.766C956.579 293.689 973.314 286.768 993.654 284.976Z"/><path fill="#FE481A" d="M190.827 750.991C215.315 750.683 241.326 751.59 266.007 751.233C277.639 751.065 318.824 750.258 327.623 752.466C338.159 755.075 347.191 761.834 352.666 771.206C359.079 782.166 359.923 795.678 356.252 807.743C344.831 845.283 331.247 882.283 319.184 919.617C312.628 939.907 305.699 952.792 286.597 963.737C278.805 968.126 270.228 970.948 261.352 972.044C252.4 973.117 240.618 972.746 231.362 972.706L185.058 972.513L137.57 972.531C127.522 972.541 109.347 973.656 100.409 971.138C75.2446 964.046 73.391 940.086 79.9428 919.882C102.102 909.641 128.796 896.141 150.657 887.024L146.643 898.356C139.002 919.596 142.033 919.08 162.597 919.047L189.371 919.069C207.285 919.093 225.164 919.231 243.116 918.977C252.117 918.849 260.808 913.977 264.678 905.571C266.835 900.886 268.381 894.987 269.978 890.007L279.002 862.015L288.353 833.178C290.144 827.692 292.039 822.26 293.486 816.671C295.587 808.555 288.398 805.564 281.569 805.606C256.469 805.763 231.393 805.859 206.292 805.635C198.816 805.701 191.275 804.865 184.35 808.263C171.992 814.327 168.279 833.899 164.179 846.366C160.127 858.961 155.918 871.505 151.552 883.995C130.259 889.818 108.165 895.003 86.6905 900.59C94.8328 876.48 102.853 852.33 110.75 828.139C113.891 818.61 119.399 800.259 123.361 791.822C126.493 785.041 130.705 778.814 135.833 773.383C151.281 756.998 169.029 751.532 190.827 750.991Z"/><path fill="#FE481A" d="M180.172 285.558C186 284.842 197.206 285.093 203.219 285.145C215.806 285.298 228.392 285.387 240.979 285.412L293.763 285.245C301.221 285.212 319.93 284.667 326.444 286.238C337.265 288.736 346.633 295.467 352.451 304.926C359.194 315.961 360.522 330.539 356.986 342.715C350.949 363.505 343.339 384.558 336.564 405.156L324.105 443.247C320.741 453.469 317.634 464.676 312.357 473.994C303.752 489.19 286.696 501.398 269.672 505.184C258.571 507.654 244.181 507.003 232.693 506.995L189.202 506.96L139.738 506.975C131.229 506.974 110.702 507.55 103.292 505.482C94.3813 503.044 86.8392 497.098 82.3875 489.004C74.5042 474.567 77.7804 461.191 82.1377 446.544L146.805 425.942L148.499 425.679C150.992 429.555 134.479 452.417 150.583 453.265C157.395 453.624 164.185 453.465 171.005 453.458L207.152 453.403C217.254 453.387 227.701 453.349 237.788 453.576C252.728 454.089 262.638 449.91 267.596 435.061C276.643 407.969 284.798 380.37 293.09 353.026C293.857 350.494 294.025 347.112 293.557 344.518C292.219 342.863 290.793 341.539 288.741 340.812C284.181 339.197 202.911 339.446 192.657 340.189C189.985 340.383 187.704 340.871 185.298 342.057C181.753 343.803 178.395 346.367 176.177 349.665C169.758 359.206 159.205 396.383 154.825 409.669C132.861 416.018 110.827 422.123 88.728 427.983C93.0814 411.882 101.24 390.158 106.612 373.728C110.659 361.35 117.804 338.394 122.633 327.222C124.953 321.798 127.982 316.705 131.641 312.077C143.844 296.635 160.735 287.746 180.172 285.558Z"/><path fill="#FE481A" d="M591.618 750.941C599.225 750.39 609.761 750.746 617.571 750.819C631.243 750.958 644.915 751.013 658.587 750.984L701.187 750.741C709.88 750.688 718.486 750.494 726.935 751.105C748.454 752.86 764.481 769.992 764.873 791.521C765.109 804.448 761.583 812.637 757.706 824.702C752.979 839.306 748.127 853.869 743.15 868.39L729.375 909.636C726.327 918.731 722.862 930.353 718.551 938.578C710.89 953.196 695.356 964.857 679.719 969.682C674.921 971.188 669.955 972.09 664.934 972.366C655.141 972.978 642.946 972.635 632.956 972.613L583.335 972.569L541.126 972.546C531.823 972.55 522.812 972.888 513.633 971.85C488.535 969.08 479.419 940.87 487.709 919.757C491.003 910.982 498.748 908.087 507.266 906.413C520.879 903.738 534.282 898.429 547.993 896.287C549.52 896.048 551.228 897.075 552.501 897.837C554.522 905.455 546.874 911.533 553.204 917.478C555.621 918.277 558.812 918.915 561.398 918.927C591.511 919.072 621.674 919.233 651.784 918.871C659.702 918.775 669.24 912.143 671.834 904.549C680.516 879.131 688.464 853.365 696.767 827.813C698.489 822.508 700.612 816.405 700.047 810.791C697.74 807.515 695.474 805.907 691.277 805.837C663.476 805.183 634.814 806.034 607.09 805.679C581.915 804.096 580.148 820.018 573.629 838.967C570.084 846.999 564.352 876.783 556.173 879.905C538.484 886.656 514.426 891.454 495.936 896.009C503.027 871.077 512.418 846.256 519.98 821.4C522.752 812.287 526.161 800.58 529.936 792.034C532.592 786.083 536.097 780.549 540.341 775.605C554.056 759.505 570.94 752.496 591.618 750.941Z"/><path d="M876.63 664.006L878.505 664.605C878.349 667.835 875.544 668.584 875.329 671.841C882.966 674.185 886.729 678.974 878.94 684.742C875.442 685.414 869.936 685.176 869.451 680.497C868.813 674.335 873.273 668.725 876.63 664.006Z"/><path fill="#FEFEFD" d="M874.359 675.159C875.63 674.59 877.112 674.768 878.213 675.621C879.314 676.474 879.857 677.864 879.625 679.237C879.392 680.611 878.423 681.745 877.103 682.189C875.192 682.831 873.114 681.86 872.38 679.982C871.647 678.104 872.518 675.981 874.359 675.159Z"/><path d="M64.4815 663.993C65.9608 664.23 65.8939 664.148 67.0411 665.088C67.8235 667.655 67.4954 670.001 67.3101 672.668C67.027 676.744 68.3615 676.221 70.2185 678.873L69.9618 680.283C68.3433 680.572 68.8923 680.346 67.4893 681.25C67.5688 683.068 67.6994 683.096 67.047 684.75L65.6952 685.319L64.9552 684.793L65.155 683.48C64.6824 682.133 64.7093 682.209 64.0708 680.988C61.1778 679.918 57.3719 680.429 54.0834 680.523C56.8558 675.486 61.3054 668.96 64.4815 663.993Z"/><path fill="#FEFEFD" d="M64.0694 669.17C64.4832 671.334 64.9924 674.777 64.1016 676.769C62.2598 678.325 62.7083 677.824 59.7335 678.023C59.5475 676.124 62.9349 671.087 64.0694 669.17Z"/><path d="M463.607 664.437C466.118 664.489 473.708 663.885 474.472 666.095C471.673 668.016 467.464 666.549 465.413 669.726C467.388 674.496 470.868 670.343 474.682 674.23C476.827 679.768 474.708 682.955 469.731 685.347C465.755 685.15 463.733 684.986 462.385 680.817C464.519 679.818 467.563 683.346 471.451 681.651C473.006 678.758 472.58 676.601 469.995 674.579C467.455 674.028 465.719 674.862 463.181 675.629L463.607 664.437Z"/><path d="M469.044 198.383C485.105 198.231 473.257 211.381 468.373 216.344C471.361 216.359 474.326 215.963 476.711 217.627L476.231 218.536C473.431 219.709 470.749 219.325 467.648 219.241C466.137 219.328 466.226 219.314 464.776 218.849C463.25 214.056 475.899 209.153 473.468 202.244C471.801 201.176 467.778 203.073 464.759 203.65L464.495 202.786C466.197 200.305 466.536 200.187 469.044 198.383Z"/><path d="M876.09 198.334C886.175 198.851 883.009 202.234 882.019 208.44C881.978 208.693 884.19 210.911 884.444 212.767C885.58 221.064 870.504 221.925 871.609 214.616L873.179 213.695C876.415 218.048 880.98 218.04 881.727 212.579C880.681 210.785 878.375 210.073 876.382 209.161C876.273 206.755 879.931 207.806 880.993 203.818C880.3 202.183 880.704 202.678 879.294 201.61C876.811 202.084 874.64 202.59 872.186 203.201L871.546 202.726C872.881 200.255 873.808 199.807 876.09 198.334Z"/><path d="M64.8828 198.272C67.0373 200.267 66.4571 216.95 64.5391 219.407L63.1434 219.006L63.0361 216.297C63.0617 213.731 63.5521 204.82 62.3757 203.208L59.3639 204.641L58.3505 204.174L58.404 202.713C59.6405 201.124 63.0082 199.386 64.8828 198.272Z"/></svg>