<?xml version="1.0" encoding="utf-8" ?><svg xmlns="http://www.w3.org/2000/svg" xmlns:xlink="http://www.w3.org/1999/xlink" width="1254" height="1254" viewBox="0 0 1254 1254"><path fill="#FDFDFC" d="M0 0L1254 0L1254 1254L0 1254L0 0Z"/><path fill="#FD4C1B" d="M583.335 765.002C583.412 764.996 583.488 764.99 583.565 764.984C612.867 764.623 642.351 764.839 671.65 764.811L704.797 764.776C718.119 764.76 734.296 763.181 744.688 773.008C761.715 789.11 749.345 813.525 743.185 831.837L727.644 878.167L715.865 913.356C707.52 938.305 698.811 964.039 670.066 972.5C658.3 975.963 640.556 974.732 627.956 974.725L581.383 974.682L540.172 974.711C515.274 974.782 487.644 976.624 493.078 940.938C498.628 938.168 506.264 935.664 512.163 933.047C530.39 924.96 553.14 916.248 569.509 904.996C546.077 909.891 522.677 914.94 499.311 920.144C507.86 894.808 515.242 868.858 524.179 843.669C536.086 810.11 540.129 769.42 583.335 765.002Z"/><path fill="#FD4C1B" d="M256.056 768.717C263.062 768.401 272.827 767.207 277.059 774.106C285.049 787.129 292.712 800.361 300.546 813.483L319.618 845.441C323.022 851.163 329.655 861.658 331.634 867.547C331.255 870.897 329.806 875.009 328.041 877.914C309.938 907.705 291.521 937.315 273.455 967.132C270.607 971.831 266.348 974.097 260.92 974.338C250.748 974.79 240.494 974.653 230.298 974.662L172.786 974.704L137.551 974.744C132.49 974.76 120.985 976.289 117.903 972.454C116.942 968.607 120.943 963.039 123.07 959.277C125.034 955.566 129.313 945.68 131.938 943.271C136.537 939.051 146.592 934.771 152.304 931.467C162.749 925.426 174.885 919.463 184.409 912.115C165.798 917.08 144.477 921.514 125.594 925.792C119.013 913.746 102.801 888.333 98.4155 876.506C96.6699 871.797 129.12 817.909 133.324 810.321C137.188 803.347 153.778 771.324 160.183 770.491C164.783 769.892 186.16 769.753 192.287 769.695C213.545 769.525 234.802 769.2 256.056 768.717Z"/><path fill="#FD4C1B" d="M202.337 293.458C217.036 292.635 238.675 293.312 253.792 293.312L349.226 293.349C342.504 306.345 334.645 320.014 327.572 332.941L281.34 417.278L261.037 454.353C238.194 496.37 244.784 495.967 196.555 495.851L145.422 495.808C123.842 495.92 102.26 495.835 80.6808 495.553C85.8846 485.728 91.2435 475.986 96.7556 466.331C101.655 463.831 108.64 461.524 113.862 459.144C133.094 450.378 163.171 439.325 179.701 427.218C156.175 432.764 132.601 438.107 108.982 443.245C118.423 424.481 129.925 404.447 140.115 385.938L179.478 314.144C185.595 303.165 189.531 297.066 202.337 293.458Z"/><path fill="#FD4C1B" d="M925.002 295.113L1024.21 295.058C1038.8 295.057 1054.55 294.663 1069.03 295.607C1074.54 295.967 1089.36 312.528 1093.77 317.052L1121.82 345.722L1147.79 372.017C1152.19 376.487 1156.75 380.966 1160.92 385.632C1164.47 389.611 1162.19 393.679 1159.18 396.935C1148.74 408.248 1137.71 419.072 1126.86 430.003L1071.25 486.214C1068.1 489.358 1063.81 494.302 1059.67 496.024C1051.1 499.583 1010.17 497.84 998.363 497.814L913.375 497.712C918.153 493.044 938.563 471.217 942.007 469.828C965.58 460.319 995.24 452.354 1017.41 439.208C1001.42 440.735 978.979 445.234 962.433 447.922C974.626 435.303 986.952 422.815 999.409 410.457C1004.87 404.965 1014.18 396.132 1018.67 390.333C1011.68 382.016 995.285 366.436 987.201 358.257L925.002 295.113Z"/><path fill="#FD4C1B" d="M1083.75 737.918C1085.74 738.093 1085.75 737.993 1087.53 738.819C1088.12 740.427 1087.96 740.683 1087.36 742.459C1076.9 773.338 1063.22 803.69 1053.08 834.614C1064.64 834.698 1136.57 833.57 1142.2 835.857C1144.34 841.41 1134.37 859.412 1130.36 863.875C1124.97 869.876 1117.11 876.157 1110.87 881.412L1080.78 906.614L977.166 992.679C971.707 997.173 954.676 1010.79 948.839 1001.7C951.206 993.553 959.743 974.123 963.2 965.828L987.146 908.063C979.596 907.796 938.865 908.956 935.046 907.205C934.49 906.95 934.496 906.909 934.369 906.27C933.669 902.732 948.055 868.527 950.609 864.101C956.829 853.324 970.473 842.701 979.605 834.053L1016.21 799.36L1055.67 761.856C1060.92 756.867 1077.63 739.566 1083.75 737.918Z"/><path fill="#FD4C1B" d="M579.781 398.136C598.02 397.61 618.091 398.015 636.441 398.013L744.221 398.049C732.371 419.853 719.074 441.196 707.097 462.972C702.001 472.238 696.523 482.96 689.409 490.703C681.865 498.915 670.73 497.934 660.618 497.855L495.249 497.773C502.303 485.676 512.266 466.886 520.806 455.75C525.301 449.888 541.963 452.709 548.488 445.016C557.265 434.667 568.859 402.688 579.781 398.136Z"/><path fill="#FD4C1B" d="M591.556 295.275C605.424 294.179 630.221 295.055 645.26 295.044L753.946 295.055C749.708 301.991 745.537 308.966 741.432 315.98L715.089 360.204C710.778 367.469 705.863 376.439 700.677 383.149C699.214 385.043 695.788 386.125 693.52 386.706C651.202 387.778 608.248 386.132 565.85 386.796C554.529 386.973 542.233 387.142 531.004 386.678L564.866 328.347C569.577 320.278 574.744 310.575 580.173 303.05C582.864 299.319 587.39 297.063 591.556 295.275Z"/><path d="M866.671 672.645L868.818 673.164C869.718 676.034 865.997 676.394 865.566 680.402C873.636 683.717 877.996 687.78 869.083 694.566C865.28 695.144 859.472 694.767 858.861 689.803C858.075 683.415 863.069 677.437 866.671 672.645Z"/><path fill="#FDFDFC" d="M864.4 683.72C865.815 683.164 867.419 683.416 868.596 684.379C869.773 685.341 870.338 686.864 870.073 688.361C869.809 689.858 868.757 691.095 867.322 691.597C865.161 692.352 862.793 691.239 861.997 689.092C861.2 686.946 862.269 684.557 864.4 683.72Z"/><path d="M52.4165 672.771C58.4265 673.541 55.332 678.512 55.652 683.43C56.0372 689.352 56.0837 685.314 58.7638 688.201L58.5215 689.651C57.4737 689.973 57.0298 690.142 56.0294 690.591C55.8873 692.018 55.7942 692.745 55.4951 694.143C53.7163 694.709 54.5753 694.75 52.8368 693.957L51.9452 691.227L51.8488 690.275C49.6207 689.159 47.8483 690.772 44.2192 690.06L43.5745 689.011C44.0879 684.281 49.6055 677.002 52.4165 672.771Z"/><path fill="#FDFDFC" d="M51.9268 678.342C53.3547 679.915 53.374 685.147 51.6472 686.641C50.651 687.503 49.2245 687.337 47.8926 687.482L47.3332 686.359C48.404 683.373 50.1783 681.008 51.9268 678.342Z"/><path d="M453.698 673.016C456.639 673.004 462.119 672.527 464.306 673.711L464.651 675.001C462.551 677.209 457.969 674.354 455.358 678.202C455.59 679.536 455.796 679.393 456.763 680.662C460.15 680.968 464.081 680.842 465.438 684.876C467.068 689.719 464.456 693.225 459.998 695.01C455.517 694.717 454.647 694.772 452.101 690.9C453.622 689.259 457.406 692.987 461.84 690.239C463.156 687.418 462.353 685.151 459.647 683.641C457.097 683.366 455.374 684.26 452.924 685.131C453.005 681.02 453.36 677.11 453.698 673.016Z"/><path d="M459.714 195.345C476.372 194.96 464.282 208.574 459.11 213.759C461.856 213.681 465.761 213.053 467.713 215.134C465.813 217.619 460.163 216.928 457.239 216.857C455.651 216.845 456.207 216.941 454.748 216.37C453.197 211.259 468.416 204.548 464.157 198.992C458.976 197.282 460.7 199.87 456.217 201.309L455.052 200.516L455.2 199.346C456.966 197.043 457.224 196.964 459.714 195.345Z"/><path d="M866.219 195.308C869.413 195.393 871.684 195.143 873.794 197.872C874.536 200.327 873.496 203.567 873.115 206.421C874.315 208.738 875.007 209.648 875.286 212.174C873.18 220.055 860.619 217.765 861.822 212.352L863.629 211.509C865.26 213.193 865.221 213.134 867.309 214.238C870.271 214.267 871.939 212.828 872.016 209.785C870.388 207.31 868.331 208.291 866.42 205.739C868.908 204.288 872.47 202.733 871.294 199.649C868.237 197.884 866.948 199.274 862.321 199.921L861.88 199.249C863.463 196.911 863.755 196.854 866.219 195.308Z"/><path d="M50.6323 195.122C53.4789 197.164 52.5221 213.855 50.4017 217.031L49.3242 216.87C48.4379 215.262 48.6819 213.501 48.6813 211.595C48.6811 209.202 49.0066 202.052 47.9442 200.428C46.6259 201.205 46.0708 201.495 44.6669 202.101L43.9304 201.552L43.8638 200.132C45.4401 197.859 48.1711 196.591 50.6323 195.122Z"/></svg>